<mxfile host="65bd71144e">
    <diagram id="1q-DE33HVO3VrOP42UAz" name="Page-1">
        <mxGraphModel dx="1250" dy="496" grid="1" gridSize="10" guides="1" tooltips="1" connect="1" arrows="1" fold="1" page="1" pageScale="1" pageWidth="827" pageHeight="1169" math="0" shadow="0">
            <root>
                <mxCell id="0"/>
                <mxCell id="1" parent="0"/>
                <mxCell id="6" value="MyInteger" style="swimlane;fontStyle=1;align=center;verticalAlign=top;childLayout=stackLayout;horizontal=1;startSize=26;horizontalStack=0;resizeParent=1;resizeParentMax=0;resizeLast=0;collapsible=1;marginBottom=0;" vertex="1" parent="1">
                    <mxGeometry x="290" y="170" width="250" height="240" as="geometry"/>
                </mxCell>
                <mxCell id="7" value="- __value: int" style="text;strokeColor=none;fillColor=none;align=left;verticalAlign=top;spacingLeft=4;spacingRight=4;overflow=hidden;rotatable=0;points=[[0,0.5],[1,0.5]];portConstraint=eastwest;" vertex="1" parent="6">
                    <mxGeometry y="26" width="250" height="44" as="geometry"/>
                </mxCell>
                <mxCell id="8" value="" style="line;strokeWidth=1;fillColor=none;align=left;verticalAlign=middle;spacingTop=-1;spacingLeft=3;spacingRight=3;rotatable=0;labelPosition=right;points=[];portConstraint=eastwest;" vertex="1" parent="6">
                    <mxGeometry y="70" width="250" height="8" as="geometry"/>
                </mxCell>
                <mxCell id="9" value="+Â iseven(self): bool&#10;+ isodd(self): bool&#10;+ isprime(self): bool&#10;+ __eq__(self, other: MyInteger): bool&#10;+ __str__(self): str&#10;+ add(self, other: MyInteger): None&#10;+ sub(self, other: MyInteger): None&#10;+ __gt__(self, other: MyInteger): bool" style="text;strokeColor=none;fillColor=none;align=left;verticalAlign=top;spacingLeft=4;spacingRight=4;overflow=hidden;rotatable=0;points=[[0,0.5],[1,0.5]];portConstraint=eastwest;" vertex="1" parent="6">
                    <mxGeometry y="78" width="250" height="162" as="geometry"/>
                </mxCell>
            </root>
        </mxGraphModel>
    </diagram>
</mxfile>